<mxfile host="Electron" agent="Mozilla/5.0 (X11; Linux x86_64) AppleWebKit/537.36 (KHTML, like Gecko) draw.io/26.0.9 Chrome/128.0.6613.186 Electron/32.2.5 Safari/537.36" version="26.0.9">
  <diagram name="Page-1" id="jesis6ydwFvCg3yF08fC">
    <mxGraphModel dx="956" dy="1561" grid="1" gridSize="10" guides="1" tooltips="1" connect="1" arrows="1" fold="1" page="1" pageScale="1" pageWidth="850" pageHeight="1100" math="0" shadow="0">
      <root>
        <mxCell id="0" />
        <mxCell id="1" parent="0" />
        <mxCell id="xviWKqRsHkdpLWUmEhDz-1" value="" style="whiteSpace=wrap;html=1;aspect=fixed;" parent="1" vertex="1">
          <mxGeometry x="370" y="20" width="320" height="320" as="geometry" />
        </mxCell>
        <mxCell id="xviWKqRsHkdpLWUmEhDz-3" value="Page directory" style="text;html=1;align=center;verticalAlign=middle;resizable=0;points=[];autosize=1;strokeColor=none;fillColor=none;" parent="1" vertex="1">
          <mxGeometry x="440" y="-30" width="100" height="30" as="geometry" />
        </mxCell>
        <mxCell id="xviWKqRsHkdpLWUmEhDz-5" value="Free bitmap" style="rounded=0;whiteSpace=wrap;html=1;" parent="1" vertex="1">
          <mxGeometry x="370" y="20" width="110" height="40" as="geometry" />
        </mxCell>
        <mxCell id="xviWKqRsHkdpLWUmEhDz-8" value="" style="rounded=0;whiteSpace=wrap;html=1;" parent="1" vertex="1">
          <mxGeometry x="480" y="20" width="70" height="40" as="geometry" />
        </mxCell>
        <mxCell id="xviWKqRsHkdpLWUmEhDz-9" value="Entry: Page ID" style="rounded=0;whiteSpace=wrap;html=1;" parent="1" vertex="1">
          <mxGeometry x="550" y="20" width="70" height="40" as="geometry" />
        </mxCell>
        <mxCell id="xviWKqRsHkdpLWUmEhDz-10" value="&lt;font style=&quot;font-size: 24px;&quot;&gt;...&lt;/font&gt;" style="text;html=1;align=center;verticalAlign=middle;resizable=0;points=[];autosize=1;strokeColor=none;fillColor=none;" parent="1" vertex="1">
          <mxGeometry x="615" y="30" width="40" height="40" as="geometry" />
        </mxCell>
        <mxCell id="xviWKqRsHkdpLWUmEhDz-11" value="" style="whiteSpace=wrap;html=1;aspect=fixed;" parent="1" vertex="1">
          <mxGeometry x="720" y="20" width="320" height="320" as="geometry" />
        </mxCell>
        <mxCell id="xviWKqRsHkdpLWUmEhDz-12" value="" style="rounded=0;whiteSpace=wrap;html=1;" parent="1" vertex="1">
          <mxGeometry x="720" y="20" width="160" height="90" as="geometry" />
        </mxCell>
        <mxCell id="xviWKqRsHkdpLWUmEhDz-13" value="Data" style="text;html=1;align=center;verticalAlign=middle;resizable=0;points=[];autosize=1;strokeColor=none;fillColor=none;" parent="1" vertex="1">
          <mxGeometry x="775" y="80" width="50" height="30" as="geometry" />
        </mxCell>
        <mxCell id="xviWKqRsHkdpLWUmEhDz-15" value="" style="rounded=0;whiteSpace=wrap;html=1;" parent="1" vertex="1">
          <mxGeometry x="720" y="20" width="160" height="60" as="geometry" />
        </mxCell>
        <mxCell id="JhfrGm3bl157l_BFd9pG-1" value="" style="rounded=0;whiteSpace=wrap;html=1;" vertex="1" parent="1">
          <mxGeometry x="750" y="280" width="290" height="60" as="geometry" />
        </mxCell>
        <mxCell id="JhfrGm3bl157l_BFd9pG-2" value="Free offset" style="rounded=0;whiteSpace=wrap;html=1;" vertex="1" parent="1">
          <mxGeometry x="1010" y="280" width="30" height="60" as="geometry" />
        </mxCell>
        <mxCell id="JhfrGm3bl157l_BFd9pG-3" value="Slot Directory" style="rounded=0;whiteSpace=wrap;html=1;" vertex="1" parent="1">
          <mxGeometry x="750" y="280" width="220" height="10" as="geometry" />
        </mxCell>
        <mxCell id="JhfrGm3bl157l_BFd9pG-4" value="Slot" style="rounded=0;whiteSpace=wrap;html=1;" vertex="1" parent="1">
          <mxGeometry x="830" y="290" width="140" height="10" as="geometry" />
        </mxCell>
        <mxCell id="JhfrGm3bl157l_BFd9pG-5" value="" style="rounded=0;whiteSpace=wrap;html=1;" vertex="1" parent="1">
          <mxGeometry x="830" y="300" width="140" height="40" as="geometry" />
        </mxCell>
        <mxCell id="JhfrGm3bl157l_BFd9pG-6" value="&lt;font style=&quot;font-size: 24px;&quot;&gt;...&lt;/font&gt;" style="text;html=1;align=center;verticalAlign=middle;resizable=0;points=[];autosize=1;strokeColor=none;fillColor=none;" vertex="1" parent="1">
          <mxGeometry x="710" y="300" width="40" height="40" as="geometry" />
        </mxCell>
        <mxCell id="JhfrGm3bl157l_BFd9pG-7" value="N" style="text;html=1;align=center;verticalAlign=middle;resizable=0;points=[];autosize=1;strokeColor=none;fillColor=none;" vertex="1" parent="1">
          <mxGeometry x="785" y="300" width="30" height="30" as="geometry" />
        </mxCell>
        <mxCell id="JhfrGm3bl157l_BFd9pG-8" value="RID" style="rounded=0;whiteSpace=wrap;html=1;" vertex="1" parent="1">
          <mxGeometry x="930" y="300" width="40" height="40" as="geometry" />
        </mxCell>
        <mxCell id="JhfrGm3bl157l_BFd9pG-9" value="Length" style="rounded=0;whiteSpace=wrap;html=1;" vertex="1" parent="1">
          <mxGeometry x="890" y="300" width="40" height="40" as="geometry" />
        </mxCell>
        <mxCell id="JhfrGm3bl157l_BFd9pG-10" value="Var field offset" style="rounded=0;whiteSpace=wrap;html=1;" vertex="1" parent="1">
          <mxGeometry x="850" y="300" width="40" height="40" as="geometry" />
        </mxCell>
        <mxCell id="JhfrGm3bl157l_BFd9pG-11" value="Count" style="rounded=0;whiteSpace=wrap;html=1;" vertex="1" parent="1">
          <mxGeometry x="970" y="280" width="40" height="60" as="geometry" />
        </mxCell>
        <mxCell id="JhfrGm3bl157l_BFd9pG-12" value="&lt;font style=&quot;font-size: 14px;&quot;&gt;...&lt;/font&gt;" style="text;html=1;align=center;verticalAlign=middle;resizable=0;points=[];autosize=1;strokeColor=none;fillColor=none;" vertex="1" parent="1">
          <mxGeometry x="825" y="310" width="40" height="30" as="geometry" />
        </mxCell>
        <mxCell id="JhfrGm3bl157l_BFd9pG-13" value="Entry (PID, RID)" style="rounded=0;whiteSpace=wrap;html=1;" vertex="1" parent="1">
          <mxGeometry x="720" y="20" width="80" height="60" as="geometry" />
        </mxCell>
        <mxCell id="JhfrGm3bl157l_BFd9pG-14" value="Page&amp;nbsp;" style="text;html=1;align=center;verticalAlign=middle;resizable=0;points=[];autosize=1;strokeColor=none;fillColor=none;" vertex="1" parent="1">
          <mxGeometry x="845" y="-30" width="50" height="30" as="geometry" />
        </mxCell>
      </root>
    </mxGraphModel>
  </diagram>
</mxfile>
